# xmcd CD database file
# Copyright (C) 1993-1996 Ti Kan
#
# Track frame offsets:
# 150
# 12445
# 23202
# 34012
# 43030
# 54567
# 65295
# 76832
# 87307
# 96207
# 104427
# 114750
# 125617
# 134945
# 145842
# 156207
# 166757
# 176950
# 187325
# 198547
# 210015
# 221327
# 233207
# 244055
# 254102
# 263970
# 276947
# 286207
# 295755
#
# Disc length: 4131 seconds
#
# Revision: 0
# Processed by: cddbd v1.4b41PL1 Copyright (c) Steve Scherf et al.
# Submitted via: inCDius 1.1b5
#
DISCID=b310211d
DTITLE=Wynn Stewart - Wynn Stewart - California Country - The Best Of The Chal
DTITLE=lenge 
DYEAR=1900
DGENRE=
TTITLE0=Wishful Thinking
TTITLE1=Big City
TTITLE2=Big Big Love
TTITLE3=Come On
TTITLE4=Heartaches For A Dime
TTITLE5=Playboy
TTITLE6=Donna On My Mind
TTITLE7=Three Cheers For The Lovers
TTITLE8=She Just Tears Me Up
TTITLE9=Rain, Rain
TTITLE10=Slightly Used
TTITLE11=How The Other Half Lives
TTITLE12=If You See My Baby
TTITLE13=Wall To Wall Heartaches
TTITLE14=Open Up My Heart
TTITLE15=Loversville
TTITLE16=Wrong Company (With Jan Howard)
TTITLE17=Never Out Of My Heart
TTITLE18=Another Day, Another Dollar
TTITLE19=Falling For You
TTITLE20=Couples Only
TTITLE21=Judy
TTITLE22=We'll Never Love Again (With Jan Howard)
TTITLE23=I'm Not The Man I Used To Be
TTITLE24=One More Memory
TTITLE25=I Don't Feel At Home
TTITLE26=Above and Beyond (The Call Of Love) 
TTITLE27=Uncle Tom Got Caught
TTITLE28=The Long Black Limousine
EXTD=
EXTT0=
EXTT1=
EXTT2=
EXTT3=
EXTT4=
EXTT5=
EXTT6=
EXTT7=
EXTT8=
EXTT9=
EXTT10=
EXTT11=
EXTT12=
EXTT13=
EXTT14=
EXTT15=
EXTT16=
EXTT17=
EXTT18=
EXTT19=
EXTT20=
EXTT21=
EXTT22=
EXTT23=
EXTT24=
EXTT25=
EXTT26=
EXTT27=
EXTT28=
PLAYORDER=
